<?xml version="1.0" encoding="UTF-8"?>
<svg width="10px" height="34px" viewBox="0 0 10 34" version="1.1" xmlns="http://www.w3.org/2000/svg" xmlns:xlink="http://www.w3.org/1999/xlink">
    <!-- Generator: Sketch 61 (89581) - https://sketch.com -->
    <title>开关钳-关闭</title>
    <desc>Created with Sketch.</desc>
    <g id="页面-1" stroke="none" stroke-width="1" fill="none" fill-rule="evenodd">
        <g id="首页" transform="translate(-797.000000, -632.000000)" fill="#D8D8D8">
            <g id="编组-13备份-2" transform="translate(734.000000, 588.000000)">
                <path d="M67,70 C69.209139,70 71,71.790861 71,74 C71,76.209139 69.209139,78 67,78 C64.790861,78 63,76.209139 63,74 C63,71.790861 64.790861,70 67,70 Z M67,44 C69.209139,44 71,45.790861 71,48 C71,49.3923401 70.2886122,50.6185266 69.2094779,51.3349182 L72.7640581,74.6455157 L71.330574,74.9466769 L66.7240058,51.9906273 C64.6436099,51.8488532 63,50.1163694 63,48 C63,45.790861 64.790861,44 67,44 Z" id="开关钳-关闭"></path>
            </g>
        </g>
    </g>
</svg>