<?xml version="1.0" encoding="UTF-8"?>
<svg width="21px" height="34px" viewBox="0 0 21 34" version="1.1" xmlns="http://www.w3.org/2000/svg" xmlns:xlink="http://www.w3.org/1999/xlink">
    <!-- Generator: Sketch 61 (89581) - https://sketch.com -->
    <title>开关钳-开启</title>
    <desc>Created with Sketch.</desc>
    <g id="页面-1" stroke="none" stroke-width="1" fill="none" fill-rule="evenodd">
        <g id="首页" transform="translate(-1134.000000, -632.000000)" fill="#D8D8D8">
            <g id="编组-13备份-3" transform="translate(1071.000000, 588.000000)">
                <path d="M67,70 C69.209139,70 71,71.790861 71,74 C71,76.209139 69.209139,78 67,78 C64.790861,78 63,76.209139 63,74 C63,71.790861 64.790861,70 67,70 Z M70.6146095,46.3193021 C71.1623347,47.4939026 71.0905939,48.7985203 70.533441,49.8648452 L83.6684944,69.583802 L82.4965928,70.4625633 L68.652526,51.647626 C66.6560858,52.5607306 64.293526,51.6933074 63.3641472,49.7002482 C62.4305248,47.6980884 63.2967455,45.3181665 65.2989053,44.384544 C67.3010652,43.4509216 69.6809871,44.3171423 70.6146095,46.3193021 Z" id="开关钳-开启"></path>
            </g>
        </g>
    </g>
</svg>