<?xml version="1.0" encoding="UTF-8"?>
<svg width="88px" height="88px" viewBox="0 0 88 88" version="1.1" xmlns="http://www.w3.org/2000/svg" xmlns:xlink="http://www.w3.org/1999/xlink">
    <!-- Generator: Sketch 61 (89581) - https://sketch.com -->
    <title>形状</title>
    <desc>Created with Sketch.</desc>
    <defs>
        <linearGradient x1="50%" y1="0%" x2="50%" y2="100%" id="linearGradient-1">
            <stop stop-color="#ABF1B1" offset="0%"></stop>
            <stop stop-color="#73DF79" offset="100%"></stop>
        </linearGradient>
        <path d="M67,100 C86.882251,100 103,116.117749 103,136 C103,155.882251 86.882251,172 67,172 C47.117749,172 31,155.882251 31,136 C31,116.117749 47.117749,100 67,100 Z M67,104 C49.326888,104 35,118.326888 35,136 C35,153.673112 49.326888,168 67,168 C84.673112,168 99,153.673112 99,136 C99,118.326888 84.673112,104 67,104 Z M68.8085938,120.3125 C70.0325521,120.3125 71.2044271,120.485026 72.3242188,120.830078 C73.3040365,121.131999 74.2539469,121.570994 75.1739502,122.147064 L75.5664062,122.402344 L75.5664062,126.445312 L75.2492188,126.152441 C74.2953125,125.297559 73.3203125,124.65625 72.3242188,124.228516 C71.2174479,123.753255 70.0455729,123.515625 68.8085938,123.515625 C66.2434896,123.515625 64.3196615,124.508464 63.0371094,126.494141 C61.7545573,128.479818 61.1132812,131.464844 61.1132812,135.449219 C61.1132812,139.498698 61.735026,142.496745 62.9785156,144.443359 C64.2220052,146.389974 66.1328125,147.363281 68.7109375,147.363281 C69.5833333,147.363281 70.3483073,147.26237 71.0058594,147.060547 C71.5694754,146.887556 72.0876515,146.630859 72.5603874,146.290458 L72.7929688,146.113281 L72.7929688,138.28125 L68.5546875,138.28125 L68.5546875,135.039062 L76.5625,135.039062 L76.5625,147.597656 L76.2420898,147.883496 C75.2688477,148.719629 74.1875,149.363281 72.9980469,149.814453 C71.6764323,150.315755 70.2473958,150.566406 68.7109375,150.566406 C65.0130208,150.566406 62.1354167,149.241536 60.078125,146.591797 C58.0208333,143.942057 56.9921875,140.227865 56.9921875,135.449219 C56.9921875,130.683594 58.0338542,126.969401 60.1171875,124.306641 C62.2005208,121.64388 65.0976562,120.3125 68.8085938,120.3125 Z" id="path-2"></path>
        <filter x="-16.7%" y="-16.7%" width="133.3%" height="133.3%" filterUnits="objectBoundingBox" id="filter-3">
            <feOffset dx="0" dy="0" in="SourceAlpha" result="shadowOffsetOuter1"></feOffset>
            <feGaussianBlur stdDeviation="4" in="shadowOffsetOuter1" result="shadowBlurOuter1"></feGaussianBlur>
            <feColorMatrix values="0 0 0 0 0.198394277   0 0 0 0 0.894248188   0 0 0 0 0.237052828  0 0 0 0.423841783 0" type="matrix" in="shadowBlurOuter1"></feColorMatrix>
        </filter>
    </defs>
    <g id="页面-1" stroke="none" stroke-width="1" fill="none" fill-rule="evenodd">
        <g id="首页" transform="translate(-83.000000, -680.000000)" fill-rule="nonzero">
            <g id="编组-13" transform="translate(60.000000, 588.000000)">
                <g id="形状">
                    <use fill="black" fill-opacity="1" filter="url(#filter-3)" xlink:href="#path-2"></use>
                    <use fill="url(#linearGradient-1)" xlink:href="#path-2"></use>
                </g>
            </g>
        </g>
    </g>
</svg>