<?xml version="1.0" encoding="UTF-8"?>
<svg width="80px" height="80px" viewBox="0 0 80 80" version="1.1" xmlns="http://www.w3.org/2000/svg" xmlns:xlink="http://www.w3.org/1999/xlink">
    <!-- Generator: Sketch 61 (89581) - https://sketch.com -->
    <title>电站</title>
    <desc>Created with Sketch.</desc>
    <defs>
        <linearGradient x1="50%" y1="0%" x2="50%" y2="100%" id="linearGradient-1">
            <stop stop-color="#ABF1B1" offset="0%"></stop>
            <stop stop-color="#73DF79" offset="100%"></stop>
        </linearGradient>
        <path d="M60.0757383,60.7955228 L60.0757383,46.0907461 L28.9736093,46.0907461 L28.7106838,44.5524691 L62.6877269,44.5524691 L62.6877269,42.4257452 L61.1054645,32.5692594 L53.5049544,32.5692594 L53.5049544,29.2624435 L53.8565682,29.2624435 L53.8565682,27.5418759 L48.4975964,27.5418759 L48.4975964,29.2624435 L48.8429315,29.2624435 L48.8429315,34.4593253 L48.0204062,34.4593253 L48.0204062,32.5724575 L35.3371922,32.5724575 L35.3371922,27.2636429 L35.3246346,27.2540486 L25.9001275,19.5210886 L25.9001275,14.9478327 L33.1396056,14.9478327 L33.1396056,18.7535492 L35.3371922,18.7535492 L35.3371922,12.7411568 L35.3246346,12.7307631 L35.3246346,12.7219684 L25.9001275,4.98261218 L25.9001275,3.3707793 C25.9001275,1.92444714 25.0250172,0.818710609 23.8336113,0.311814784 C23.3551007,0.105615597 22.8407627,0 22.3212008,0 L13.9766506,0 C13.4570802,0 12.9427253,0.105531833 12.4642401,0.311814784 C11.2728343,0.818710609 10.3977239,1.92444714 10.397724,3.3707793 L10.397724,4.98261218 L0.97321691,12.7219684 L0.97321691,18.7535492 L3.15196707,18.7535492 L3.15196707,14.9478327 L10.397724,14.9478327 L10.397724,19.5210886 L0.97321691,27.2476525 L0.97321691,32.6340205 L3.15196707,32.6340205 L3.15196707,29.479913 L10.1709016,29.479913 L9.8828608,31.1429152 L9.88678503,31.1429152 L4.80329641,60.7955228 L0.00627883106,60.7955228 L0,64 L64,64 L64,60.7955228 L60.0757383,60.7955228 Z M25.9001275,7.68179255 L25.9001275,7.66260411 L32.0659276,12.7155722 L25.9001275,12.7155722 L25.9001275,7.68179255 Z M25.0713234,46.0907461 L21.7686647,46.0907461 L21.7686647,52.4925048 L19.2853919,49.4983015 L19.0499363,49.2168703 L20.9791033,46.8982615 L22.9216129,44.5524691 L24.8091828,44.5524691 L25.0713234,46.0907461 Z M20.2350633,35.7065769 L19.2932405,34.7471525 L19.1284215,34.5776542 L19.4580595,34.2386577 L19.4902384,34.2066769 L20.6675169,33.0137927 L20.2350633,35.7065769 Z M19.960365,37.4199488 L19.1566761,42.4257452 L19.1566761,44.5524691 L21.1368586,44.5524691 L19.9501619,45.9788132 L18.1512803,48.1375179 L16.3523987,45.9788132 L12.4924949,41.3415957 L18.1536349,35.5738565 L19.960365,37.4199488 Z M33.1458844,32.5692594 L26.6559404,32.5692594 L26.4110664,31.1429152 L26.1230256,29.479913 L33.1458844,29.479913 L33.1458844,32.5692594 Z M25.9001275,27.2476525 L25.9001275,22.1946844 L32.0722064,27.2476525 L32.0392426,27.2476525 L32.0470912,27.2540486 L25.9001275,27.2540486 L25.9001275,27.2476525 Z M22.5032866,31.1557076 L22.745806,32.5692594 L21.1078191,32.5692594 L22.5032866,31.1557076 Z M14.6673207,12.7219684 L18.1489258,9.17529646 L21.6305308,12.7219684 L14.6673207,12.7219684 Z M21.4610027,14.9478327 L18.1489258,19.7169711 L14.8368488,14.9478327 L21.4610027,14.9478327 Z M17.291867,20.9602251 L14.2623369,25.3288039 L14.2623369,16.5916464 L17.291867,20.9602251 Z M18.1489258,22.2034791 L21.6399489,27.2476525 L14.6547631,27.2476525 L18.1489258,22.2034791 Z M18.955754,20.9602251 L22.0449328,16.5084963 L22.0449328,25.411954 L18.955754,20.9602251 Z M19.0876092,8.15510855 L22.0449328,5.14891239 L22.0449328,11.167701 L19.0876092,8.15510855 Z M18.1457863,3.91765113 L21.3008927,3.91765113 L18.1457863,7.13811881 L14.9906799,3.91765113 L14.984401,3.91125504 L18.1457863,3.91765113 Z M14.2497793,5.14891239 L17.2071029,8.15510855 L14.2497793,11.167701 L14.2497793,5.14891239 Z M22.176788,29.4735169 L18.1450014,33.5806525 L14.1171392,29.4735169 L22.176788,29.4735169 Z M13.7914255,31.1557076 L16.8044737,34.2082759 L16.8358677,34.2402567 L17.1686451,34.5768548 L16.999117,34.7495511 L14.926322,36.8610841 L12.3677033,39.4507303 L13.7914255,31.1557076 Z M4.25076035,12.7155722 L10.397724,7.67859447 L10.397724,12.7155722 L4.25076035,12.7155722 Z M4.25860889,27.2476525 L4.22564503,27.2476525 L10.397724,22.1946844 L10.397724,27.2476525 L4.25860889,27.2476525 Z M11.8104581,42.6783936 L15.3242421,46.897462 L17.2541941,49.2160708 L17.0344354,49.480712 L8.99519276,59.1549072 L11.8104581,42.6783936 Z M18.3247327,60.7987208 L9.41194938,60.7987208 L12.7318748,56.8011196 L18.147356,50.2946236 L21.767095,54.6456129 L21.767095,60.7939237 L18.3247327,60.7987208 Z M28.4807221,49.1417154 L34.8254684,49.1417154 L34.8254684,60.7955228 L28.4838615,60.7955228 L28.4807221,49.1417154 Z M50.3372903,56.7979215 L44.0019621,56.7979215 L44.0019621,49.1417154 L50.3372903,49.1417154 L50.3372903,56.7979215 Z" id="path-2"></path>
        <filter x="-18.8%" y="-18.8%" width="137.5%" height="137.5%" filterUnits="objectBoundingBox" id="filter-3">
            <feOffset dx="0" dy="0" in="SourceAlpha" result="shadowOffsetOuter1"></feOffset>
            <feGaussianBlur stdDeviation="4" in="shadowOffsetOuter1" result="shadowBlurOuter1"></feGaussianBlur>
            <feColorMatrix values="0 0 0 0 0.198394277   0 0 0 0 0.894248188   0 0 0 0 0.237052828  0 0 0 0.423841783 0" type="matrix" in="shadowBlurOuter1"></feColorMatrix>
        </filter>
    </defs>
    <g id="页面-1" stroke="none" stroke-width="1" fill="none" fill-rule="evenodd">
        <g id="首页" transform="translate(-65.000000, -154.000000)" fill-rule="nonzero">
            <g id="电站" transform="translate(73.000000, 162.000000)">
                <g id="电塔_红色">
                    <g id="形状">
                        <use fill="black" fill-opacity="1" filter="url(#filter-3)" xlink:href="#path-2"></use>
                        <use fill="url(#linearGradient-1)" xlink:href="#path-2"></use>
                    </g>
                </g>
            </g>
        </g>
    </g>
</svg>