<?xml version="1.0" encoding="UTF-8"?>
<svg width="30px" height="40px" viewBox="0 0 30 40" version="1.1" xmlns="http://www.w3.org/2000/svg" xmlns:xlink="http://www.w3.org/1999/xlink">
    <!-- Generator: Sketch 61 (89581) - https://sketch.com -->
    <title>开关-点击开启</title>
    <desc>Created with Sketch.</desc>
    <g id="页面-1" stroke="none" stroke-width="1" fill="none" fill-rule="evenodd">
        <g id="首页" transform="translate(-43.000000, -331.000000)" fill-rule="nonzero">
            <g id="开关-点击开启" transform="translate(43.000000, 331.000000)">
                <path d="M0.28001339,36.9213994 L0.364676724,2.51238581 C0.364676724,1.48238893 0.795177617,0.420560413 1.7485796,0.175080956 C1.92520102,0.129654546 2.11033298,0.105449232 2.30121232,0.105449232 L27.6117912,0.105449232 C28.8326674,0.105449232 29.8223221,1.09510392 29.8223221,2.31598014 L29.8223221,37.1318419 C29.8223221,37.3163107 29.7997747,37.4954742 29.7571114,37.6667904 C29.517932,38.629145 28.3412664,39.1507198 27.304859,39.1507198 L2.49043377,39.1319303 C1.26966808,39.1319303 0.28001339,38.1421651 0.28001339,36.9213994 L0.28001339,36.9213994 Z" id="路径" fill="#FFFFFF"></path>
                <path d="M29.7571114,37.6667904 C29.5183741,38.6294766 28.6485302,39.3423728 27.6117912,39.3423728 L2.30121232,39.3423728 C1.079894,39.3423728 0.0906814177,38.3531602 0.0906814177,37.1318419 L0.0906814177,2.31598014 C0.0906814177,1.28587274 0.794735511,0.420449886 1.7485796,0.175080956 L1.7485796,36.9107888 C1.7485796,37.3385265 2.09452768,37.6844746 2.52226541,37.6844746 L27.6117912,37.6844746 C28.602109,37.6844746 29.2940052,37.677843 29.7571114,37.6667904 Z" id="路径" fill="#586374"></path>
                <path d="M22.5275701,19.723911 L22.5275701,31.8265677 C22.5275701,33.0478861 21.5383575,34.0370986 20.3170392,34.0370986 L9.59596431,34.0370986 C8.37464599,34.0370986 7.38543341,33.0478861 7.38543341,31.8265677 L7.38543341,19.723911 L14.9238964,19.1618835 L22.5275701,19.723911 Z" id="路径" fill="#DC4955"></path>
                <path d="M22.5275701,7.62125431 L22.5275701,19.723911 L7.38543341,19.723911 L7.38543341,7.62125431 C7.38543341,6.39993599 8.37464599,5.41072341 9.59596431,5.41072341 L20.3170392,5.41072341 C21.5383575,5.41072341 22.5275701,6.39993599 22.5275701,7.62125431 Z" id="路径" fill="#DF646E"></path>
                <g id="编组" transform="translate(11.364389, 9.279152)" fill="#F8F7F7">
                    <path d="M3.64737599,6.63159272 C3.18946452,6.63159272 2.81842691,6.26044458 2.81842691,5.80264363 L2.81842691,0.82894909 C2.81842691,0.371148139 3.18946452,0 3.64737599,0 C4.10528747,0 4.47632508,0.371148139 4.47632508,0.82894909 L4.47632508,5.80264363 C4.47632508,6.26044458 4.10528747,6.63159272 3.64737599,6.63159272 Z" id="路径"></path>
                    <path d="M3.59211272,21.2210967 C1.6113665,21.2210967 0,19.6096197 0,17.628984 C0,15.6483483 1.6113665,14.0368713 3.59211272,14.0368713 C5.57285894,14.0368713 7.18422544,15.6483483 7.18422544,17.628984 C7.18422544,19.6096197 5.57285894,21.2210967 3.59211272,21.2210967 Z M3.59211272,15.6947694 C2.52564209,15.6947694 1.65789818,16.5625133 1.65789818,17.628984 C1.65789818,18.6954546 2.52564209,19.5631985 3.59211272,19.5631985 C4.65858336,19.5631985 5.52632726,18.6954546 5.52632726,17.628984 C5.52632726,16.5625133 4.65858336,15.6947694 3.59211272,15.6947694 Z" id="形状"></path>
                </g>
            </g>
        </g>
    </g>
</svg>