<?xml version="1.0" encoding="UTF-8"?>
<svg width="16px" height="16px" viewBox="0 0 16 16" version="1.1" xmlns="http://www.w3.org/2000/svg" xmlns:xlink="http://www.w3.org/1999/xlink">
    <!-- Generator: Sketch 61 (89581) - https://sketch.com -->
    <title>设置</title>
    <desc>Created with Sketch.</desc>
    <g id="页面-1" stroke="none" stroke-width="1" fill="none" fill-rule="evenodd">
        <g id="首页" transform="translate(-1856.000000, -503.000000)" fill="#95C7FF" fill-rule="nonzero">
            <g id="编组备份" transform="translate(1619.000000, 478.000000)">
                <path d="M247.666667,34.7777778 C248.863248,34.7777778 249.836883,35.5023512 250.190357,36.5542814 L252.111111,36.5555556 L252.111111,38.3333333 L250.190693,38.3336055 C249.837502,39.3860776 248.863628,40.1111111 247.666667,40.1111111 C246.469706,40.1111111 245.495832,39.3860776 245.14264,38.3336055 L237.888889,38.3333333 L237.888889,36.5555556 L245.142977,36.5542814 C245.49645,35.5023512 246.470085,34.7777778 247.666667,34.7777778 Z M247.666667,36.5555556 C247.133333,36.5555556 246.777778,36.9111111 246.777778,37.4444444 C246.777778,37.9367521 247.080736,38.2775805 247.546826,38.3271026 L247.666667,38.3333333 C248.2,38.3333333 248.555556,37.9777778 248.555556,37.4444444 C248.555556,36.9521368 248.252597,36.6113084 247.786507,36.5617863 L247.666667,36.5555556 Z M242.333333,25.8888889 C243.529915,25.8888889 244.50355,26.6134623 244.857023,27.6653925 L252.111111,27.6666667 L252.111111,29.4444444 L244.85736,29.4447167 C244.504168,30.4971887 243.530294,31.2222222 242.333333,31.2222222 C241.136372,31.2222222 240.162498,30.4971887 239.809307,29.4447167 L237.888889,29.4444444 L237.888889,27.6666667 L239.809643,27.6653925 C240.163117,26.6134623 241.136752,25.8888889 242.333333,25.8888889 Z M242.333333,27.6666667 C241.8,27.6666667 241.444444,28.0222222 241.444444,28.5555556 C241.444444,29.0478633 241.747403,29.3886916 242.213493,29.4382137 L242.333333,29.4444444 C242.866667,29.4444444 243.222222,29.0888889 243.222222,28.5555556 C243.222222,28.0632479 242.919264,27.7224195 242.453174,27.6728974 L242.333333,27.6666667 Z" id="设置"></path>
            </g>
        </g>
    </g>
</svg>